<svg xmlns:xlink="http://www.w3.org/1999/xlink" xmlns="http://www.w3.org/2000/svg" xmlns:svg="http://www.w3.org/2000/svg" version="1.1" id="svg3387" xml:space="preserve" width="682.66669" height="682.66669" viewBox="0 0 682.66669 682.66669"><defs id="defs3391"><clipPath clipPathUnits="userSpaceOnUse" id="clipPath3401"><path d="M 0,512 H 512 V 0 H 0 Z" id="path3399"/></clipPath></defs><g id="g3393" transform="matrix(1.3333333,0,0,-1.3333333,0,682.66667)"><g id="g3395"><g id="g3397" clip-path="url(#clipPath3401)"><g id="g3403" transform="translate(302.125,455.7891)"><path d="m 0,0 c 22.474,-5.168 43.537,-14.033 62.514,-25.917 l 18.199,18.198 c 7.973,7.973 21.018,7.973 28.991,0 l 36.239,-36.239 c 7.974,-7.973 7.974,-21.019 0,-28.991 L 127.74,-91.152 c 11.881,-18.978 20.744,-40.037 25.912,-62.51 h 25.724 c 11.275,0 20.499,-9.225 20.499,-20.5 v -51.251 c 0,-11.274 -9.224,-20.499 -20.499,-20.499 H 153.66 c -5.169,-22.474 -14.032,-43.535 -25.917,-62.513 l 18.2,-18.2 c 7.974,-7.973 7.974,-21.019 0,-28.991 l -36.239,-36.24 c -7.973,-7.973 -21.018,-7.973 -28.991,0 l -18.201,18.201 C 43.534,-385.538 22.474,-394.406 0,-399.574 v -25.714 c 0,-11.275 -9.225,-20.5 -20.5,-20.5 h -51.25 c -11.276,0 -20.5,9.225 -20.5,20.5 v 25.716 c -22.474,5.169 -43.536,14.032 -62.513,25.916 l -18.2,-18.2 c -7.973,-7.973 -21.018,-7.973 -28.991,0 l -36.24,36.24 c -7.973,7.972 -7.973,21.018 0,28.991 l 18.201,18.2 c -11.883,18.979 -20.751,40.038 -25.919,62.513 h -25.714 c -11.275,0 -20.5,9.225 -20.5,20.499 v 51.251 c 0,11.275 9.225,20.5 20.5,20.5 h 25.715 c 5.17,22.474 14.033,43.535 25.917,62.513 l -18.2,18.2 c -7.973,7.972 -7.973,21.018 0,28.991 l 36.24,36.239 c 7.973,7.973 21.018,7.973 28.991,0 l 18.2,-18.2 c 18.979,11.883 40.038,20.751 62.513,25.919 v 25.714 c 0,11.275 9.224,20.5 20.5,20.5 h 51.25 c 11.275,0 20.5,-9.225 20.5,-20.5 z" style="fill:none;stroke:#000000;stroke-width:20;stroke-linecap:round;stroke-linejoin:round;stroke-miterlimit:22.926;stroke-dasharray:none;stroke-opacity:1" id="path3405"/></g><g id="g3407" transform="translate(325.8433,123.2334)"><path d="m 0,0 c -20.859,-10.998 -44.623,-17.231 -69.843,-17.231 -82.843,0 -150,67.157 -150,150 0,25.218 6.231,48.979 17.227,69.836 m 62.929,62.932 c 20.861,10.997 44.623,17.232 69.844,17.232 82.842,0 149.999,-67.158 149.999,-150 0,-25.219 -6.233,-48.978 -17.227,-69.837" style="fill:none;stroke:#000000;stroke-width:20;stroke-linecap:round;stroke-linejoin:round;stroke-miterlimit:22.926;stroke-dasharray:none;stroke-opacity:1" id="path3409"/></g><g id="g3411" transform="translate(177.9629,244.332)"><path d="m 0,0 c -9.284,9.284 -9.284,24.338 0,33.622 9.285,9.285 24.338,9.285 33.623,0 L 61.056,6.189 122.451,67.584 c 9.284,9.285 24.338,9.285 33.623,0 9.284,-9.284 9.284,-24.338 0,-33.622 L 77.867,-44.245 c -9.284,-9.284 -24.338,-9.284 -33.622,0 z" style="fill:none;stroke:#000000;stroke-width:20;stroke-linecap:round;stroke-linejoin:round;stroke-miterlimit:22.926;stroke-dasharray:none;stroke-opacity:1" id="path3413"/></g><g id="g3415" transform="translate(149.9287,362.0625)"><path d="M 0,0 0.005,0.005" style="fill:none;stroke:#000000;stroke-width:20;stroke-linecap:round;stroke-linejoin:round;stroke-miterlimit:2.613;stroke-dasharray:none;stroke-opacity:1" id="path3417"/></g><g id="g3419" transform="translate(362.0659,149.9355)"><path d="M 0,0 0.005,0.006" style="fill:none;stroke:#000000;stroke-width:20;stroke-linecap:round;stroke-linejoin:round;stroke-miterlimit:2.613;stroke-dasharray:none;stroke-opacity:1" id="path3421"/></g></g></g></g></svg>