<svg xmlns:xlink="http://www.w3.org/1999/xlink" xmlns="http://www.w3.org/2000/svg" height="512" viewBox="0 0 128 128" width="512"><g><path d="m116.694 4.557h-105.389a6.755 6.755 0 0 0 -6.748 6.748v105.395a6.755 6.755 0 0 0 6.748 6.748h105.389a6.756 6.756 0 0 0 6.749-6.748v-105.395a6.756 6.756 0 0 0 -6.749-6.748zm-105.389 3.5h105.389a3.252 3.252 0 0 1 3.249 3.248v15.911h-111.886v-15.911a3.252 3.252 0 0 1 3.248-3.248zm105.389 111.886h-105.389a3.252 3.252 0 0 1 -3.248-3.243v-85.984h111.886v85.984a3.252 3.252 0 0 1 -3.249 3.243z"/><path d="m64 42.194a33.135 33.135 0 1 0 33.135 33.135 33.173 33.173 0 0 0 -33.135-33.135zm22.362 52.549a37.134 37.134 0 0 0 -10.1-4.037 74.47 74.47 0 0 0 1.411-13.627h15.906a29.507 29.507 0 0 1 -7.217 17.664zm-51.941-17.664h15.908a74.383 74.383 0 0 0 1.411 13.627 37.134 37.134 0 0 0 -10.1 4.037 29.507 29.507 0 0 1 -7.219-17.664zm7.217-21.163a37.141 37.141 0 0 0 10.1 4.036 74.392 74.392 0 0 0 -1.411 13.627h-15.906a29.5 29.5 0 0 1 7.217-17.663zm30.323 1.334a48.561 48.561 0 0 1 -15.922 0c2.01-7.214 5.083-11.556 7.961-11.556s5.951 4.342 7.961 11.556zm-1.075-10.739a29.583 29.583 0 0 1 12.94 6.814 35.743 35.743 0 0 1 -8.387 3.2 30.459 30.459 0 0 0 -4.553-10.014zm-17.056 27.068a71.465 71.465 0 0 1 1.384-12.91 52.668 52.668 0 0 0 17.572 0 71.555 71.555 0 0 1 1.384 12.91zm20.34 3.5a71.577 71.577 0 0 1 -1.384 12.911 52.668 52.668 0 0 0 -17.572 0 71.487 71.487 0 0 1 -1.384-12.911zm-21.609-20.549a35.706 35.706 0 0 1 -8.387-3.2 29.588 29.588 0 0 1 12.941-6.82 30.455 30.455 0 0 0 -4.554 10.02zm0 37.6a30.459 30.459 0 0 0 4.553 10.019 29.581 29.581 0 0 1 -12.941-6.814 35.647 35.647 0 0 1 8.389-3.206zm3.477-.72a48.561 48.561 0 0 1 15.922 0c-2.01 7.214-5.083 11.555-7.961 11.555s-5.95-4.342-7.96-11.556zm19.4.72a35.7 35.7 0 0 1 8.388 3.2 29.593 29.593 0 0 1 -12.94 6.814 30.46 30.46 0 0 0 4.552-10.015zm2.233-20.55a74.48 74.48 0 0 0 -1.411-13.628 37.141 37.141 0 0 0 10.1-4.036 29.5 29.5 0 0 1 7.217 17.663z"/><path d="m17.636 19.75a2.114 2.114 0 1 0 -2.113-2.114 2.115 2.115 0 0 0 2.113 2.114z"/><path d="m26.012 19.75a2.114 2.114 0 1 0 -2.112-2.114 2.115 2.115 0 0 0 2.112 2.114z"/><path d="m34.388 19.75a2.114 2.114 0 1 0 -2.113-2.114 2.115 2.115 0 0 0 2.113 2.114z"/></g></svg>