<svg width="95" height="28" viewBox="0 0 95 28" fill="none" xmlns="http://www.w3.org/2000/svg">
<g clip-path="url(#clip0_2384_57211)">
<path d="M70.5228 22.2381H62.8321V10.6006C62.8677 10.2011 62.8233 9.79851 62.7015 9.4163C62.5796 9.03407 62.3829 8.67988 62.1226 8.37435C61.9097 8.15709 61.6555 7.98468 61.3748 7.86736C61.094 7.75002 60.7925 7.69014 60.4881 7.69127C60.0082 7.70413 59.5378 7.82751 59.1134 8.05178C58.6123 8.30593 58.1615 8.64881 57.7831 9.06374C57.3765 9.49953 57.0485 10.0024 56.8138 10.55V22.2381H49.1484V1.32231H56.0473V4.48466C56.5619 3.73079 57.2207 3.08595 57.9858 2.58726C58.8156 2.05046 59.7301 1.65703 60.6908 1.42349C61.7864 1.14918 62.9126 1.0153 64.0421 1.02505C65.2452 0.969068 66.4421 1.22856 67.5137 1.77769C68.3265 2.23449 68.9973 2.90637 69.4522 3.71936C69.8722 4.49193 70.1571 5.3304 70.2947 6.19865C70.4253 6.97623 70.4931 7.76302 70.4974 8.55143L70.5228 22.2381Z" fill="#513CE1"/>
<path d="M25.6387 1.3291H33.3041V12.9665C33.2678 13.3651 33.312 13.7669 33.4339 14.1482C33.5558 14.5294 33.7528 14.8825 34.0135 15.1865C34.2251 15.4058 34.479 15.5799 34.76 15.6984C35.0409 15.8169 35.343 15.8772 35.648 15.8759C36.126 15.8639 36.5946 15.7404 37.0163 15.5153C37.519 15.2607 37.9718 14.918 38.3531 14.5034C38.7576 14.066 39.0854 13.5635 39.3223 13.0171V1.3291H46.994V22.2449H40.0888V19.0825C39.5765 19.8382 38.9172 20.4834 38.1503 20.9799C37.3203 21.5179 36.406 21.9134 35.4453 22.15C34.3497 22.4243 33.2235 22.5582 32.094 22.5484C30.8909 22.6045 29.694 22.345 28.6225 21.7958C27.8097 21.339 27.1388 20.6671 26.6839 19.8541C26.2613 19.0827 25.9763 18.2438 25.8414 17.3749C25.7108 16.5972 25.643 15.8105 25.6387 15.022V1.3291Z" fill="#513CE1"/>
<path d="M83.7757 22.6366C82.0677 22.6661 80.3695 22.3721 78.7711 21.7701C77.4356 21.2561 76.2231 20.4681 75.2116 19.4571C74.2 18.4461 73.4121 17.2346 72.8986 15.9008C72.4026 14.5981 72.1514 13.2151 72.1573 11.8214C72.1526 10.4196 72.4038 9.02861 72.8986 7.71669C73.392 6.42044 74.1491 5.24031 75.1222 4.25076C76.1577 3.21093 77.401 2.40064 78.7711 1.87269C82.0145 0.709103 85.5624 0.709103 88.8058 1.87269C90.1686 2.404 91.4051 3.21403 92.4357 4.25076C93.4088 5.24031 94.1659 6.42044 94.6593 7.71669C95.1541 9.02861 95.4053 10.4196 95.4005 11.8214C95.4065 13.2151 95.1552 14.5981 94.6593 15.9008C94.1612 17.1948 93.4047 18.374 92.4357 19.3667C91.4098 20.4154 90.1726 21.2347 88.8058 21.7701C87.1996 22.376 85.4924 22.6701 83.7757 22.6366ZM80.0254 11.8088C80.0045 12.6153 80.1692 13.4158 80.5069 14.1489C80.7367 14.6017 81.0572 15.0026 81.4486 15.3267C81.8399 15.6508 82.2938 15.8912 82.7821 16.0328C83.2703 16.1746 83.7825 16.2147 84.2869 16.1506C84.7913 16.0865 85.2771 15.9197 85.7142 15.6605C86.2941 15.293 86.7576 14.7688 87.051 14.1489C87.3685 13.4095 87.5322 12.6133 87.5322 11.8088C87.5322 11.0043 87.3685 10.2081 87.051 9.46863C86.8226 9.01447 86.5028 8.61223 86.1116 8.2871C85.7204 7.96195 85.2662 7.7209 84.7775 7.57902C84.2887 7.43714 83.7758 7.39749 83.271 7.46254C82.7663 7.52758 82.2803 7.69592 81.8436 7.95704C81.261 8.32124 80.7966 8.8463 80.5069 9.46863C80.1686 10.2014 80.0038 11.0021 80.0254 11.8088Z" fill="#513CE1"/>
<path d="M16.6674 1.32855L12.3976 12.985L7.65902 1.30957L0 1.32855L9.17309 21.0806L6.84181 27.9998H13.7026L24.3264 1.32855H16.6674Z" fill="#513CE1"/>
</g>
<defs>
<clipPath id="clip0_2384_57211">
<rect width="95" height="28" fill="white"/>
</clipPath>
</defs>
</svg>
